<svg width="36" height="43" fill="none" xmlns="http://www.w3.org/2000/svg"><path fill-rule="evenodd" clip-rule="evenodd" d="M4.5 13.5a4 4 0 01-4-4v-5a4 4 0 014-4h27a4 4 0 014 4v5a4 4 0 01-4 4h-27zm1-10a2 2 0 00-2 2v3c0 1.1.9 2 2 2h25a2 2 0 002-2v-3a2 2 0 00-2-2h-25zM4.5 42.5a4 4 0 01-4-4v-5a4 4 0 014-4h27a4 4 0 014 4v5a4 4 0 01-4 4h-27zm1-10a2 2 0 00-2 2v3c0 1.1.9 2 2 2h25a2 2 0 002-2v-3a2 2 0 00-2-2h-25z" fill="#414141"/><path d="M17 24v-7c0-.6.4-1 1-1s1 .4 1 1v7h-2z" fill="#414141"/><path clip-rule="evenodd" d="M4.5 13.5a4 4 0 01-4-4v-5a4 4 0 014-4h27a4 4 0 014 4v5a4 4 0 01-4 4h-27zm1-10a2 2 0 00-2 2v3c0 1.1.9 2 2 2h25a2 2 0 002-2v-3a2 2 0 00-2-2h-25zM4.5 42.5a4 4 0 01-4-4v-5a4 4 0 014-4h27a4 4 0 014 4v5a4 4 0 01-4 4h-27zm1-10a2 2 0 00-2 2v3c0 1.1.9 2 2 2h25a2 2 0 002-2v-3a2 2 0 00-2-2h-25z" stroke="#414141"/><path d="M17 24v-7c0-.6.4-1 1-1v0c.6 0 1 .4 1 1v7h-2z" stroke="#414141"/><path d="M18.8 26.8l2.4-3.6c.6-1-.5-2-1.4-1.4l-.7.5a2 2 0 01-2.2 0l-.7-.5c-1-.6-2 .5-1.4 1.4l2.4 3.6a1 1 0 001.6 0z" fill="#414141"/></svg>